<svg width="52" height="60" viewBox="0 0 52 60" fill="none" xmlns="http://www.w3.org/2000/svg">
<path d="M30.2059 7.75185C30.2925 7.77142 30.379 7.78079 30.4642 7.78079C30.9993 7.78079 31.4823 7.41095 31.6048 6.86614L32.7366 1.83552C32.8786 1.20411 32.4827 0.576926 31.8521 0.434661C31.2215 0.292044 30.5952 0.688957 30.4531 1.32036L29.3213 6.35099C29.1794 6.98239 29.5755 7.60958 30.2059 7.75185Z" fill="#848484"/>
<path d="M24.6899 6.15546C24.9125 6.50832 25.2922 6.70144 25.6803 6.70144C25.8941 6.70144 26.1105 6.64273 26.3045 6.52003C26.8508 6.17421 27.0139 5.45035 26.6686 4.9032L23.9187 0.545932C23.5734 -0.00121633 22.8505 -0.164224 22.3041 0.181245C21.7577 0.527065 21.5946 1.25093 21.94 1.79808L24.6899 6.15546Z" fill="#848484"/>
<path d="M35.2482 8.8599C35.4621 8.8599 35.6784 8.80119 35.8726 8.67838L40.2274 5.92119C40.7737 5.57525 40.9366 4.85139 40.5911 4.30436C40.2458 3.75744 39.5229 3.5942 38.9765 3.94014L34.6217 6.69721C34.0754 7.04314 33.9125 7.76701 34.258 8.31404C34.4806 8.66678 34.8602 8.8599 35.2482 8.8599Z" fill="#848484"/>
<path d="M49.7744 50.8523L42.3627 47.6566L39.9866 38.7741C43.0533 37.627 45.6577 35.2556 47.0871 32.2536C48.4849 29.3179 48.5789 26.1114 47.3601 23.1932C47.3513 23.1716 47.2794 23.0034 47.2515 22.941L42.1568 11.5297C41.9221 11.004 41.3406 10.7269 40.7855 10.876L29.5873 13.8801L29.7591 12.2201C29.818 11.6505 29.4572 11.1216 28.9058 10.9695L25.2402 9.95794C24.6171 9.78591 23.9727 10.1524 23.801 10.7764C23.6294 11.4004 23.9953 12.0456 24.6184 12.2175L27.3286 12.9654L26.8283 17.7991C23.5044 16.2729 19.1406 16.4359 16.1316 18.3697C13.6937 19.9363 9.81881 19.9619 7.19897 18.5375L11.5732 8.74352L14.5282 9.53677C15.1523 9.70446 15.7943 9.33356 15.9617 8.70825C16.129 8.08306 15.7586 7.44052 15.1343 7.27282L11.2153 6.22071C10.6602 6.07153 10.0786 6.34856 9.84389 6.87415L4.74553 18.2893C3.41498 21.2725 3.47381 24.5784 4.91123 27.5979C6.3408 30.601 8.94659 32.9739 12.0139 34.1219L9.63788 43.0042L2.22553 46.1971C0.905297 46.7674 0.0778356 48.0848 0.166664 49.4754C0.255258 50.8642 1.24561 51.996 2.75123 52.4289C2.75803 52.4309 2.76483 52.4328 2.77162 52.4345L13.1332 55.2121C13.1393 55.2138 13.1455 55.2154 13.1517 55.2169C13.4962 55.3033 13.8354 55.3454 14.1633 55.3454C15.2843 55.3454 16.2719 54.8536 16.8682 53.9576C17.6401 52.7979 17.5815 51.243 16.7221 50.0877L11.899 43.6113L14.2749 34.7294C14.9609 34.8446 15.6563 34.902 16.3526 34.902C18.9351 34.9019 21.5281 34.1204 23.6839 32.6355C23.8731 32.5052 24.0569 32.3699 24.236 32.2309C25.1022 34.4133 26.6706 36.2763 28.7821 37.593C30.8399 38.8763 33.2711 39.5484 35.6737 39.5484C36.3632 39.5484 37.0503 39.4925 37.7255 39.3803L40.1016 48.263L35.2784 54.7399C34.4185 55.8947 34.3586 57.4498 35.1294 58.6095C35.7262 59.5073 36.7146 59.9999 37.8371 59.9999C38.1635 59.9999 38.5016 59.9582 38.8444 59.8727C38.8511 59.871 38.8576 59.8693 38.8643 59.8675L49.2259 57.0867C49.2325 57.0849 49.239 57.083 49.2455 57.0813C50.754 56.6481 51.7457 55.5153 51.8336 54.125C51.9215 52.7348 51.0934 51.4195 49.7744 50.8523ZM29.329 16.3759L40.4272 13.3987L44.7993 23.1913C42.1805 24.616 38.3058 24.5897 35.8661 23.0219C33.9485 21.7884 31.3491 21.2452 28.7989 21.4973L29.329 16.3759ZM14.9207 52.6579C14.6322 53.0915 14.0536 53.0256 13.7284 52.9455L3.38827 50.1738C3.06752 50.0801 2.53596 49.8468 2.50268 49.3264C2.48182 49.0002 2.67635 48.5555 3.15166 48.3501L10.2356 45.2986L14.8453 51.4887C15.1549 51.9046 15.1014 52.3864 14.9207 52.6579ZM22.3575 30.7043C19.889 32.4046 16.5862 32.9842 13.7357 32.2166C13.7356 32.2166 13.7356 32.2167 13.7355 32.2165C13.7353 32.2165 13.7352 32.2165 13.735 32.2164C13.7349 32.2164 13.7348 32.2164 13.7346 32.2163C10.8849 31.4539 8.31354 29.2979 7.02424 26.5894C6.12495 24.7002 5.90803 22.675 6.37233 20.7504C7.93444 21.5389 9.75412 21.9391 11.5681 21.939C13.6547 21.9388 15.7327 21.4111 17.3959 20.3423C19.9091 18.727 23.9493 18.7485 26.5689 20.3072L26.1437 24.4151C25.8799 26.9709 24.5353 29.2043 22.3575 30.7043ZM30.0196 35.6034C28.0389 34.3682 26.6645 32.5396 26.1001 30.4134C27.4286 28.7778 28.2498 26.8084 28.472 24.6564L28.5515 23.8887C30.738 23.5602 32.9955 23.9609 34.6015 24.9942C36.2667 26.0643 38.3454 26.5925 40.4331 26.5925C42.2462 26.5925 44.065 26.1924 45.626 25.4044C46.0907 27.3298 45.874 29.3554 44.9744 31.2447C43.6853 33.9521 41.1157 36.1065 38.2655 36.8683C38.2655 36.8683 38.2654 36.8683 38.2653 36.8683C38.2653 36.8683 38.265 36.8684 38.2649 36.8684C38.2646 36.8685 38.2642 36.8686 38.2639 36.8688C35.5466 37.6012 32.4646 37.1282 30.0196 35.6034ZM48.609 54.8255L38.2694 57.6005C37.9443 57.6802 37.3664 57.745 37.078 57.3109C36.8976 57.0394 36.8447 56.5575 37.1549 56.1409L41.7647 49.9508L48.8495 53.0056C49.324 53.2096 49.518 53.6521 49.4974 53.977C49.4648 54.4981 48.931 54.7317 48.609 54.8255Z" fill="#848484"/>
<path d="M19.7533 10.8964C20.3997 10.8964 20.9237 10.3718 20.9237 9.72442C20.9237 9.07719 20.3997 8.55243 19.7533 8.55243H19.7465C19.1001 8.55243 18.5796 9.07708 18.5796 9.72442C18.5797 10.3718 19.1071 10.8964 19.7533 10.8964Z" fill="#848484"/>
</svg>
