<svg width="50" height="60" viewBox="0 0 50 60" fill="none" xmlns="http://www.w3.org/2000/svg">
<path d="M47.7615 34.0187C47.2839 33.5059 46.6927 33.0752 46.0315 32.7342C46.7795 27.7621 44.1345 22.8695 39.4094 20.388C40.4129 18.832 40.6956 17.0802 40.1778 15.4094C39.5873 13.5039 38.0613 11.9571 36.1538 11.2542C36.1736 9.26136 35.2355 6.24123 30.8583 2.83122C27.7181 0.384129 25.9647 -0.301412 24.8058 0.463582C24.3833 0.742603 23.7367 1.44643 24.1546 3.02856C24.3456 3.74164 24.3531 4.45531 24.1751 4.98745C23.7093 6.38314 22.9107 7.3865 21.9231 8.19239C21.7686 7.69622 21.5467 7.2188 21.2581 6.77056C20.4207 5.47108 19.1269 4.57578 17.6152 4.24941C16.5459 4.01855 15.459 4.09355 14.4541 4.45296C14.0907 3.39207 14.3111 2.65907 14.8393 1.77115C15.1702 1.21486 14.9876 0.495808 14.4314 0.164873C13.8752 -0.166179 13.1561 0.0166321 12.8252 0.5728C11.7906 2.31185 11.6564 3.88871 12.4238 5.6969C10.4349 7.57271 9.99843 10.664 11.5328 13.0413C11.8487 13.5315 12.2358 13.9654 12.6764 14.3353C11.5405 15.9396 10.9524 18.1523 11.454 21.4451C11.1583 21.5402 10.8778 21.6357 10.6147 21.7322C8.15145 22.634 6.23322 24.1168 5.06722 26.0202C3.88305 27.9533 3.55094 30.2352 4.08801 32.6722C3.37739 33.0225 2.74329 33.4753 2.23658 34.0196C0.956781 35.3944 0.636862 37.1799 1.35826 38.9174L7.65692 54.1103C8.63098 56.4554 10.1028 59.9995 13.905 59.9995H18.3531C18.3694 59.9998 18.3857 59.9998 18.4022 59.9995H31.5943C31.6026 59.9996 31.6108 59.9998 31.619 59.9998C31.6272 59.9998 31.6355 59.9998 31.6436 59.9995H36.0951C39.8972 59.9995 41.3692 56.4555 42.3433 54.1096L48.642 38.9177C49.3629 37.1791 49.0418 35.3935 47.7615 34.0187ZM26.398 5.7303C26.776 4.6005 26.6512 3.45864 26.4947 2.73653C27.0287 2.99012 27.9424 3.53012 29.4178 4.67984C32.3774 6.9856 33.8952 9.29371 33.807 11.3546C33.7245 13.2803 32.2203 14.6507 30.9728 15.4611C28.057 17.3558 22.5699 18.6601 17.7285 19.8107C16.3253 20.1442 14.9623 20.4683 13.7259 20.7931C13.3345 17.9115 13.9488 16.2221 15.1664 14.996C15.3554 14.845 15.5192 14.6613 15.7089 14.5084C15.8914 14.3612 16.0808 14.2227 16.2746 14.091C16.702 13.8005 17.1508 13.5428 17.6063 13.2994C18.6094 12.7635 19.646 12.2936 20.6528 11.7647C22.2327 10.9348 23.7546 9.93976 24.8821 8.5334C25.5517 7.69845 26.0593 6.74478 26.398 5.7303ZM17.1209 6.54041C18.0203 6.73459 18.79 7.2672 19.2878 8.03969C19.5862 8.50317 19.7651 9.01844 19.8196 9.55421C19.2812 9.84413 18.7221 10.1187 18.1564 10.3967C16.8459 11.0403 15.4757 11.7133 14.3061 12.6417C13.992 12.402 13.7197 12.1084 13.5023 11.7711C12.4732 10.1765 12.9331 8.04157 14.5269 7.01255C15.3003 6.51393 16.2217 6.34635 17.1209 6.54041ZM11.4211 23.933C13.0791 23.3249 15.6009 22.7256 18.2706 22.0911C23.297 20.8964 28.9939 19.5423 32.2499 17.4265C33.916 16.3438 35.0718 15.043 35.6728 13.5945C36.7446 14.0962 37.6035 15.0205 37.9389 16.1032C38.3505 17.4314 37.9294 18.7811 36.7215 20.0057C36.7203 20.007 36.7188 20.0083 36.7176 20.0097C36.7164 20.0109 36.7153 20.0118 36.7142 20.013C34.2624 22.4917 29.7495 24.5445 26.1225 26.1942C25.5807 26.4407 25.3056 27.077 25.4989 27.6402C25.7205 28.2854 26.4704 28.6107 27.0929 28.3276C30.6408 26.7138 34.9969 24.7319 37.8026 22.2102C41.3404 23.8722 44.2474 27.5415 43.77 31.9714C42.4304 31.7243 41.0096 31.7866 39.7362 32.2115C38.2883 32.6947 37.1417 33.5627 36.3457 34.7504C35.1285 32.889 33.0259 31.6565 30.641 31.6565C28.2969 31.6565 26.2253 32.846 24.9985 34.6526C23.7724 32.846 21.7019 31.6565 19.3588 31.6565C16.9738 31.6565 14.8712 32.8891 13.6539 34.7504C12.8578 33.5626 11.7108 32.6943 10.2622 32.2113C9.02098 31.7973 7.63993 31.7279 6.33061 31.9534C5.28284 26.6466 9.90128 24.4894 11.4211 23.933ZM13.9051 57.656C12.0135 57.656 11.0458 56.1593 9.82171 53.2123L3.52317 38.0195C3.15321 37.1285 3.29758 36.32 3.9523 35.6166C4.4139 35.1207 5.80127 34.0625 7.77095 34.1627C8.36977 34.1932 8.96812 34.2504 9.52113 34.4348C10.7443 34.8427 12.262 35.8924 12.5527 38.5763C12.5554 38.6055 16.9087 57.6561 16.9087 57.6561H13.9051V57.656ZM30.6843 57.656H26.1704V53.8929C26.1704 53.2457 25.6456 52.7211 24.9985 52.7211C24.3514 52.7211 23.8267 53.2457 23.8267 53.8929V57.656H19.3128L14.8932 38.344C14.9595 35.9376 16.9374 34.0004 19.3589 34.0004C21.8223 34.0004 23.8266 36.005 23.8266 38.4689V43.4005C23.8266 44.0477 24.3513 44.5724 24.9984 44.5724C25.6455 44.5724 26.1703 44.0477 26.1703 43.4005V38.4688C26.1703 36.0049 28.1758 34.0003 30.6411 34.0003C33.0626 34.0003 35.0405 35.9375 35.1068 38.3439L30.6843 57.656ZM46.4771 38.02L40.1789 53.2116C38.9546 56.1593 37.9869 57.656 36.0953 57.656H33.0888C33.0888 57.656 37.445 38.6059 37.4477 38.5759C37.7386 35.8926 39.2556 34.8428 40.4782 34.4348C41.66 34.0407 43.0177 33.999 44.3854 34.5505C45.0406 34.7981 45.6202 35.1584 46.0464 35.616C46.7019 36.3197 46.8467 37.1286 46.4771 38.02Z" fill="#ADADAD"/>
<path d="M24.9985 47.4748C24.3514 47.4748 23.8267 47.9994 23.8267 48.6467V48.6532C23.8267 49.3005 24.3514 49.8218 24.9985 49.8218C25.6456 49.8218 26.1704 49.2939 26.1704 48.6467C26.1704 47.9994 25.6458 47.4748 24.9985 47.4748Z" fill="#ADADAD"/>
</svg>
