<svg width="58" height="58" viewBox="0 0 58 58" fill="none" xmlns="http://www.w3.org/2000/svg">
<path d="M12.7643 16.913C11.1259 19.2093 10.2467 21.9604 10.2499 24.7812C10.2499 26.1488 10.7932 27.4603 11.7602 28.4273C12.7272 29.3943 14.0387 29.9375 15.4062 29.9375C16.7737 29.9375 18.0852 29.3943 19.0522 28.4273C20.0192 27.4603 20.5624 26.1488 20.5624 24.7812C20.5634 23.9113 20.9095 23.0773 21.5246 22.4622C22.1397 21.847 22.9738 21.501 23.8437 21.5C25.1295 21.4983 26.3684 21.0169 27.318 20.1499C28.2675 19.283 28.8594 18.0928 28.9777 16.8125H30.6508C30.1793 18.3304 29.9388 19.9106 29.9374 21.5C29.9374 23.7378 30.8264 25.8839 32.4087 27.4662C33.9911 29.0486 36.1372 29.9375 38.3749 29.9375C40.6127 29.9375 42.7588 29.0486 44.3412 27.4662C45.9235 25.8839 46.8124 23.7378 46.8124 21.5C46.8065 19.0268 46.2279 16.5886 45.1218 14.3765C44.0158 12.1645 42.4124 10.2386 40.4374 8.75L38.9374 7.625C38.7752 7.50329 38.5778 7.4375 38.3749 7.4375C38.1721 7.4375 37.9747 7.50329 37.8124 7.625L36.3124 8.75C34.1687 10.3637 32.4663 12.4918 31.3626 14.9375H28.8034C28.4962 13.8586 27.846 12.909 26.9511 12.2325C26.0563 11.5559 24.9655 11.1891 23.8437 11.1875C20.3554 11.1849 17.0006 12.5282 14.4781 14.9375H13.9999C11.8554 14.9392 9.77593 15.6745 8.10693 17.0212L9.28631 18.4788C10.289 17.662 11.4881 17.1222 12.7643 16.913V16.913ZM37.4374 10.25L38.3749 9.54688L39.3124 10.25C41.0551 11.5635 42.4698 13.2628 43.4458 15.2146C44.4217 17.1664 44.9322 19.3178 44.9374 21.5C44.9374 23.2405 44.246 24.9097 43.0153 26.1404C41.7846 27.3711 40.1154 28.0625 38.3749 28.0625C36.6345 28.0625 34.9653 27.3711 33.7346 26.1404C32.5038 24.9097 31.8124 23.2405 31.8124 21.5C31.8176 19.3178 32.3282 17.1664 33.3041 15.2146C34.28 13.2628 35.6948 11.5635 37.4374 10.25V10.25ZM23.8437 13.0625C24.7139 13.0625 25.5485 13.4082 26.1639 14.0236C26.7792 14.6389 27.1249 15.4735 27.1249 16.3438C27.1249 17.214 26.7792 18.0486 26.1639 18.6639C25.5485 19.2793 24.7139 19.625 23.8437 19.625C22.4766 19.6265 21.166 20.1703 20.1994 21.1369C19.2327 22.1036 18.689 23.4142 18.6874 24.7812C18.6874 25.6515 18.3417 26.4861 17.7264 27.1014C17.111 27.7168 16.2764 28.0625 15.4062 28.0625C14.536 28.0625 13.7014 27.7168 13.086 27.1014C12.4706 26.4861 12.1249 25.6515 12.1249 24.7812C12.1284 21.6743 13.3642 18.6956 15.5612 16.4987C17.7581 14.3018 20.7368 13.066 23.8437 13.0625V13.0625Z" fill="#ADADAD"/>
<path d="M39.3125 12.125H37.4375V26.1875H39.3125V12.125Z" fill="#ADADAD"/>
<path d="M35.5625 16.8125H33.6875V23.375H35.5625V16.8125Z" fill="#ADADAD"/>
<path d="M43.0625 16.8125H41.1875V23.375H43.0625V16.8125Z" fill="#ADADAD"/>
<path d="M55.6053 45.555C55.1252 45.0629 54.5514 44.6717 53.9178 44.4046C53.2842 44.1376 52.6035 44 51.9159 44C51.2283 44 50.5476 44.1376 49.914 44.4046C49.2804 44.6717 48.7066 45.0629 48.2265 45.555C47.921 45.8696 47.5555 46.1197 47.1515 46.2904C46.7476 46.461 46.3135 46.5488 45.875 46.5486C45.7406 46.5482 45.6064 46.5398 45.473 46.5231C50.5732 40.5568 53.3754 32.9655 53.375 25.1164V24.3125C53.3741 22.5917 52.9002 20.9043 52.0051 19.4347C51.1099 17.9651 49.828 16.7699 48.2994 15.9797L47.4384 17.6452C48.9327 18.4162 50.1246 19.667 50.8228 21.1967C51.521 22.7265 51.685 24.4464 51.2884 26.0805C50.8918 27.7146 49.9576 29.168 48.6359 30.2075C47.3142 31.247 45.6815 31.8122 44 31.8125H29.8188C29.8978 31.5062 29.9377 31.1912 29.9375 30.875V27.125C29.9375 27.0019 29.9133 26.8799 29.8661 26.7662C29.819 26.6525 29.75 26.5491 29.6629 26.462L26.8504 23.6495C26.7634 23.5625 26.66 23.4934 26.5463 23.4463C26.4325 23.3992 26.3106 23.375 26.1875 23.375C25.1933 23.3761 24.2401 23.7715 23.5371 24.4746C22.8341 25.1776 22.4386 26.1308 22.4375 27.125V30.875C22.4373 31.1912 22.4772 31.5062 22.5562 31.8125H14C12.0116 31.8102 10.1052 31.0193 8.69917 29.6133C7.29313 28.2073 6.50223 26.3009 6.5 24.3125C6.49302 22.5957 7.08194 20.9298 8.16629 19.5988L6.70871 18.4195C5.36203 20.0885 4.62676 22.1679 4.625 24.3125V25.1164C4.62495 33.8544 8.09599 42.2345 14.2746 48.4133C14.4505 48.5889 14.6889 48.6876 14.9375 48.6875H32.75V46.8125H15.3291C10.9678 42.3389 8.05457 36.6558 6.96875 30.5031C7.84667 31.5037 8.92803 32.3053 10.1406 32.8544C11.3531 33.4036 12.6689 33.6876 14 33.6875H23.7111C24.3946 34.2916 25.2753 34.625 26.1875 34.625C27.0997 34.625 27.9804 34.2916 28.6639 33.6875H44C45.3311 33.6877 46.6469 33.4037 47.8594 32.8546C49.072 32.3055 50.1533 31.5039 51.0312 30.5034C50.035 36.1536 47.4945 41.4179 43.6911 45.7134C43.6339 45.6625 43.5777 45.6102 43.5234 45.555C43.0433 45.0629 42.4695 44.6717 41.8359 44.4046C41.2022 44.1376 40.5216 44 39.834 44C39.1464 44 38.4657 44.1376 37.8321 44.4046C37.1985 44.6717 36.6247 45.0629 36.1446 45.555C35.1725 46.5546 34.6287 47.8939 34.6287 49.2882C34.6287 50.6824 35.1725 52.0217 36.1446 53.0213C38.2853 55.2268 41.1123 56.639 44.1615 57.0259C47.2106 57.4128 50.3008 56.7515 52.9245 55.1506L51.9502 53.5486C47.2828 56.3869 41.333 55.63 37.4825 51.7077C36.8525 51.0599 36.5001 50.1918 36.5001 49.2882C36.5001 48.3845 36.8525 47.5165 37.4825 46.8686C37.7881 46.5542 38.1537 46.3042 38.5576 46.1336C38.9615 45.9629 39.3955 45.875 39.834 45.875C40.2725 45.875 40.7065 45.9629 41.1104 46.1336C41.5143 46.3042 41.8799 46.5542 42.1855 46.8686C42.6656 47.3608 43.2394 47.7519 43.873 48.0189C44.5066 48.286 45.1873 48.4236 45.8749 48.4236C46.5625 48.4236 47.2431 48.286 47.8767 48.0189C48.5104 47.7519 49.0841 47.3608 49.5643 46.8686C49.8699 46.5542 50.2355 46.3042 50.6394 46.1336C51.0433 45.9629 51.4773 45.875 51.9158 45.875C52.3543 45.875 52.7883 45.9629 53.1922 46.1336C53.5961 46.3042 53.9617 46.5542 54.2673 46.8686C54.8972 47.5165 55.2497 48.3845 55.2497 49.2882C55.2497 50.1918 54.8972 51.0599 54.2673 51.7077C53.9413 52.0398 53.5964 52.3528 53.2345 52.6452L54.4122 54.1042C54.8303 53.7664 55.2287 53.4047 55.6052 53.0211C56.5772 52.0215 57.121 50.6823 57.121 49.2881C57.121 47.8939 56.5773 46.5546 55.6053 45.555V45.555ZM28.0625 30.875C28.0625 31.3723 27.865 31.8492 27.5133 32.2008C27.1617 32.5524 26.6848 32.75 26.1875 32.75C25.6902 32.75 25.2133 32.5524 24.8617 32.2008C24.51 31.8492 24.3125 31.3723 24.3125 30.875V27.125C24.3131 26.6894 24.465 26.2675 24.7424 25.9316C25.0197 25.5956 25.4052 25.3666 25.8329 25.2836L28.0625 27.5132V30.875Z" fill="#ADADAD"/>
<path d="M8.375 47.75H4.625C4.50188 47.75 4.37997 47.7742 4.26623 47.8214C4.15248 47.8685 4.04913 47.9375 3.96207 48.0246L1.14957 50.8371C1.06252 50.9241 0.993463 51.0275 0.946352 51.1412C0.899241 51.255 0.874996 51.3769 0.875 51.5C0.876117 52.4942 1.27156 53.4474 1.97458 54.1504C2.6776 54.8534 3.63078 55.2489 4.625 55.25H8.375C9.36956 55.25 10.3234 54.8549 11.0267 54.1516C11.7299 53.4484 12.125 52.4946 12.125 51.5C12.125 50.5054 11.7299 49.5516 11.0267 48.8484C10.3234 48.1451 9.36956 47.75 8.375 47.75ZM8.375 53.375H4.625C4.18938 53.3744 3.7675 53.2225 3.43158 52.9451C3.09567 52.6678 2.86661 52.2823 2.78363 51.8546L5.01324 49.625H8.375C8.87228 49.625 9.34919 49.8225 9.70082 50.1742C10.0525 50.5258 10.25 51.0027 10.25 51.5C10.25 51.9973 10.0525 52.4742 9.70082 52.8258C9.34919 53.1775 8.87228 53.375 8.375 53.375Z" fill="#ADADAD"/>
<path d="M20.0938 50.5625H17.2812C16.411 50.5625 15.5764 50.9082 14.9611 51.5236C14.3457 52.1389 14 52.9735 14 53.8438C14 54.714 14.3457 55.5486 14.9611 56.1639C15.5764 56.7793 16.411 57.125 17.2812 57.125H20.0938C20.964 57.125 21.7986 56.7793 22.4139 56.1639C23.0293 55.5486 23.375 54.714 23.375 53.8438C23.375 52.9735 23.0293 52.1389 22.4139 51.5236C21.7986 50.9082 20.964 50.5625 20.0938 50.5625V50.5625ZM20.0938 55.25H17.2812C16.9083 55.25 16.5506 55.1018 16.2869 54.8381C16.0232 54.5744 15.875 54.2167 15.875 53.8438C15.875 53.4708 16.0232 53.1131 16.2869 52.8494C16.5506 52.5857 16.9083 52.4375 17.2812 52.4375H20.0938C20.4667 52.4375 20.8244 52.5857 21.0881 52.8494C21.3518 53.1131 21.5 53.4708 21.5 53.8438C21.5 54.2167 21.3518 54.5744 21.0881 54.8381C20.8244 55.1018 20.4667 55.25 20.0938 55.25Z" fill="#ADADAD"/>
<path d="M27.2858 9.10445C27.9891 9.80771 28.9429 10.2028 29.9375 10.2028C30.932 10.2028 31.8859 9.80771 32.5891 9.10445C33.2924 8.40118 33.6875 7.44735 33.6875 6.45279C33.6875 5.45822 33.2924 4.50439 32.5891 3.80113L31.0359 2.24804C30.6017 1.81135 30.0851 1.46514 29.5161 1.22945C28.9472 0.993759 28.3371 0.873269 27.7213 0.874956H25.2969C25.0483 0.874956 24.8098 0.973728 24.634 1.14954C24.4582 1.32536 24.3594 1.56382 24.3594 1.81246V4.23671C24.3577 4.85253 24.4782 5.46257 24.7139 6.03151C24.9495 6.60045 25.2957 7.117 25.7324 7.55125L27.2858 9.10445ZM26.2344 2.74996H27.721C28.0905 2.74893 28.4566 2.82122 28.798 2.96263C29.1393 3.10404 29.4493 3.31177 29.7098 3.57378L31.263 5.12687C31.4371 5.30098 31.5753 5.50768 31.6695 5.73518C31.7637 5.96267 31.8122 6.20649 31.8122 6.45273C31.8122 6.69897 31.7637 6.94279 31.6695 7.17028C31.5753 7.39778 31.4371 7.60448 31.263 7.77859C30.9114 8.13021 30.4345 8.32774 29.9372 8.32774C29.44 8.32774 28.9631 8.13021 28.6114 7.77859L27.0583 6.22527C26.7963 5.96477 26.5886 5.65488 26.4471 5.31354C26.3057 4.9722 26.2334 4.60619 26.2344 4.23671V2.74996Z" fill="#ADADAD"/>
<path d="M17.2815 11.2996C17.7124 11.3003 18.1392 11.216 18.5374 11.0513C18.9356 10.8867 19.2973 10.645 19.6018 10.3402L21.5905 8.35149C21.8952 8.04678 22.1369 7.68504 22.3018 7.28692C22.4667 6.8888 22.5516 6.4621 22.5516 6.03117C22.5516 5.60025 22.4667 5.17355 22.3018 4.77543C22.1369 4.37731 21.8952 4.01557 21.5905 3.71086C21.2858 3.40615 20.924 3.16445 20.5259 2.99954C20.1278 2.83463 19.7011 2.74976 19.2702 2.74976C18.8393 2.74976 18.4126 2.83463 18.0144 2.99954C17.6163 3.16445 17.2546 3.40615 16.9499 3.71086L14.9612 5.69965C14.5021 6.15834 14.1894 6.74294 14.0626 7.37944C13.9359 8.01594 14.0009 8.67573 14.2493 9.27529C14.4977 9.87485 14.9185 10.3872 15.4582 10.7476C15.998 11.1079 16.6325 11.3 17.2815 11.2996ZM16.2872 7.02551L18.2758 5.03684C18.4063 4.90567 18.5613 4.80153 18.7321 4.73038C18.9029 4.65923 19.086 4.62248 19.271 4.62222C19.456 4.62196 19.6392 4.65821 19.8102 4.72888C19.9811 4.79955 20.1365 4.90326 20.2673 5.03407C20.3981 5.16488 20.5018 5.32021 20.5725 5.49117C20.6432 5.66212 20.6794 5.84535 20.6792 6.03034C20.6789 6.21533 20.6422 6.39846 20.5711 6.56923C20.4999 6.74 20.3958 6.89505 20.2646 7.02551L18.2758 9.01418C18.0114 9.27436 17.6549 9.4195 17.2839 9.41799C16.9129 9.41648 16.5576 9.26844 16.2952 9.00612C16.0329 8.7438 15.8849 8.38845 15.8834 8.01747C15.8819 7.6465 16.027 7.28996 16.2872 7.02551V7.02551Z" fill="#ADADAD"/>
</svg>
