<svg width="60" height="56" viewBox="0 0 60 56" fill="none" xmlns="http://www.w3.org/2000/svg">
<path d="M43.3594 22.375C41.1301 22.375 39.0025 22.8167 37.0577 23.6154C36.3451 21.8354 35.9672 19.9149 35.9672 17.9413C35.9672 11.616 39.8374 6.17805 45.334 3.8698C44.5898 5.18922 43.9687 6.77957 43.7589 8.50281C43.4317 11.1883 44.1326 13.6534 45.842 15.8298C47.8247 18.3544 49.7873 19.0605 51.519 19.6836C52.9311 20.1916 54.1507 20.6303 55.3227 22.0701C55.547 22.3457 55.9655 22.5021 56.3149 22.5021C56.3703 22.5021 56.2591 22.4982 56.3149 22.4902C56.7225 22.4316 57.1528 22.1634 57.3122 21.7838C57.4807 21.3821 61.3966 11.8904 57.5831 7.03504C55.7285 4.67383 53.6893 3.80359 52.2004 3.16832C51.7811 2.98938 51.4328 2.83715 51.14 2.68855C51.1671 2.68844 51.1941 2.6875 51.2213 2.6875H52.5C53.1472 2.6875 53.6719 2.16285 53.6719 1.51562C53.6719 0.868398 53.1472 0.34375 52.5 0.34375H46.1645C37.9654 0.34375 30.257 3.53664 24.4594 9.33426C20.7655 13.0281 18.1311 17.4982 16.7041 22.3761C16.6829 22.3759 16.6618 22.375 16.6406 22.375C7.46496 22.375 0 29.84 0 39.0156C0 48.1913 7.46496 55.6562 16.6406 55.6562C19.5858 55.6562 22.4803 54.8763 25.0111 53.4006C26.9606 52.2639 28.661 50.7363 30.0035 48.9306C33.0393 53.0093 37.8959 55.6562 43.3594 55.6562C52.535 55.6562 60 48.1913 60 39.0156C60 29.84 52.535 22.375 43.3594 22.375ZM55.7398 8.48277C57.7602 11.0552 56.7371 16.155 55.7542 19.2167C54.5869 18.2965 53.3979 17.8688 52.3124 17.4783C50.7384 16.9121 49.2518 16.3772 47.6851 14.3825C46.3745 12.7137 45.8362 10.8309 46.0854 8.78641C46.23 7.59941 46.6228 6.4934 47.1014 5.53996C47.5323 7.07547 48.2092 8.53762 49.1211 9.87555C49.348 10.2084 49.716 10.3874 50.0904 10.3874C50.3177 10.3874 50.5474 10.3214 50.7495 10.1838C51.2842 9.81918 51.4222 9.09016 51.0577 8.55531C50.1592 7.2373 49.5304 5.77621 49.1897 4.23941C49.8243 4.70277 50.5581 5.0159 51.2804 5.3241C52.6752 5.91918 54.2561 6.59383 55.7398 8.48277V8.48277ZM41.9283 3.00414C36.9458 6.11512 33.6234 11.6471 33.6234 17.9413C33.6234 20.2823 34.0842 22.5586 34.9516 24.6605C33.0198 25.7963 31.3361 27.3101 30.0034 29.1005C28.6644 27.2995 26.9694 25.7748 25.0256 24.6389C23.2031 23.5738 21.1914 22.872 19.1078 22.5605C22.3107 12.3621 31.1324 4.62848 41.9283 3.00414V3.00414ZM16.6406 53.3125C8.7573 53.3125 2.34375 46.8989 2.34375 39.0156C2.34375 31.308 8.475 25.0063 16.1162 24.7294C15.7439 26.5203 15.5285 28.3557 15.48 30.2195C15.1553 30.077 14.8564 29.8744 14.5982 29.6161C14.1405 29.1585 13.3985 29.1585 12.9408 29.6161C12.4832 30.0737 12.4832 30.8158 12.9408 31.2735C13.929 32.2618 15.243 32.806 16.6405 32.806C18.0381 32.806 19.352 32.2616 20.3402 31.2734C20.7979 30.8158 20.7979 30.0737 20.3402 29.6161C19.8826 29.1585 19.1406 29.1585 18.683 29.6161C18.4311 29.868 18.1407 30.0667 17.8255 30.2086C17.8787 28.3707 18.1083 26.5764 18.4966 24.8413C22.6201 25.3873 26.3603 27.7293 28.6452 31.2508C27.4162 33.5704 26.7188 36.2129 26.7188 39.0156C26.7188 41.8184 27.4164 44.461 28.6453 46.7806C26.022 50.8236 21.4764 53.3125 16.6406 53.3125V53.3125ZM43.3594 53.3125C35.4761 53.3125 29.0625 46.8989 29.0625 39.0156C29.0625 33.8256 31.8425 29.2731 35.9914 26.7679C36.755 28.0837 37.6938 29.3035 38.7901 30.3961C38.4892 30.4211 38.183 30.3992 37.8806 30.3272C37.2509 30.1778 36.6192 30.5666 36.4695 31.1964C36.3197 31.8262 36.7089 32.4578 37.3386 32.6076C37.7439 32.7039 38.1492 32.75 38.5488 32.75C40.9163 32.75 43.0682 31.1287 43.6391 28.7271C43.7887 28.0975 43.3997 27.4657 42.7699 27.316C42.1405 27.1663 41.5085 27.5554 41.3588 28.1852C41.2723 28.549 41.1183 28.8852 40.9091 29.1821C39.7952 28.1607 38.8523 26.9936 38.0974 25.7222C39.7268 25.075 41.5023 24.7188 43.3594 24.7188C51.2427 24.7188 57.6562 31.1323 57.6562 39.0156C57.6562 46.8989 51.2427 53.3125 43.3594 53.3125V53.3125Z" fill="#ADADAD"/>
<path d="M14.3959 46.4147C14.0748 46.347 13.7549 46.2542 13.4383 46.1348C10.9993 45.2154 9.43651 42.9875 9.24701 40.55C9.18901 39.8041 8.15541 39.6777 7.88096 40.3737C7.87065 40.4 7.89092 40.3472 7.88096 40.3737C6.81034 43.2117 8.15331 46.3779 10.9599 47.5279C12.11 47.9991 13.3207 48.0578 14.4328 47.7765C15.148 47.5955 15.1179 46.567 14.3959 46.4147V46.4147Z" fill="#ADADAD"/>
<path d="M40.7787 46.4147C40.4576 46.347 40.1377 46.2542 39.8212 46.1348C37.3821 45.2154 35.8193 42.9875 35.6298 40.55C35.5718 39.8041 34.5382 39.6777 34.2638 40.3737C34.2535 40.4 34.2737 40.3472 34.2638 40.3737C33.1931 43.2117 34.5361 46.3779 37.3428 47.5279C38.4928 47.9991 39.7035 48.0578 40.8156 47.7765C41.5309 47.5955 41.5007 46.567 40.7787 46.4147V46.4147Z" fill="#ADADAD"/>
</svg>
