<svg width="60" height="55" viewBox="0 0 60 55" fill="none" xmlns="http://www.w3.org/2000/svg">
<path d="M2.61655 49.5136H2.62909L3.49956 49.498C3.12568 49.7602 2.85165 50.1414 2.72213 50.5793C2.59261 51.0172 2.61525 51.486 2.78635 51.9094C2.98836 52.408 3.37973 52.8062 3.87475 53.0168C4.36977 53.2275 4.92808 53.2333 5.42741 53.0331L9.46229 51.4149C9.93844 52.1743 10.5425 52.8455 11.2476 53.3987C12.4009 54.3097 13.798 54.859 15.2628 54.9775L49.5336 50.1962C49.9798 50.1296 50.4014 49.9491 50.7575 49.6721C51.1137 49.3951 51.3925 49.0311 51.5671 48.615C53.7124 47.5235 55.5263 45.8773 56.8202 43.8476C56.921 43.6905 56.9553 43.4999 56.9156 43.3175C56.8758 43.1352 56.7652 42.9761 56.6082 42.8752C56.4511 42.7744 56.2604 42.7401 56.0781 42.7799C55.8957 42.8197 55.7366 42.9302 55.6358 43.0873C54.6366 44.6603 53.2844 45.9786 51.6866 46.9376C51.5578 46.4442 51.2866 45.9996 50.9067 45.6595C50.5268 45.3193 50.0551 45.0986 49.5505 45.025L32.3532 42.4264C31.5723 40.781 31.1727 38.2507 31.1149 36.3815C33.555 33.9426 34.3571 31.4746 34.5685 29.6863C34.6452 29.038 34.6574 28.3837 34.605 27.7329C35.8249 26.5471 37.2573 25.6017 38.8274 24.9464C39.5927 25.8328 40.5991 26.4996 41.8377 26.9378C41.1809 27.2532 40.5447 27.6099 39.933 28.0058C38.5385 28.9088 38.46 30.1211 38.5372 30.7632C38.5593 30.9525 38.6253 31.1341 38.7298 31.2935C38.8343 31.4529 38.9746 31.5858 39.1394 31.6816C39.3042 31.7774 39.4891 31.8334 39.6794 31.8453C39.8696 31.8572 40.06 31.8245 40.2355 31.75C41.074 31.3948 41.9912 31.2664 42.8951 31.3777C44.356 31.5689 45.4255 31.1263 46.1202 30.6511C46.5333 31.7201 47.3302 32.5966 48.3551 33.1094C49.1566 33.5381 49.8308 34.1708 50.3095 34.9436C50.4084 35.1055 50.5438 35.2419 50.705 35.3419C50.8662 35.4419 51.0486 35.5027 51.2375 35.5193C51.2764 35.5228 51.3152 35.5247 51.3537 35.5247C51.5258 35.5249 51.696 35.4887 51.8532 35.4187C52.0104 35.3486 52.1511 35.2462 52.2661 35.1181C52.701 34.6383 53.3387 33.6032 52.7231 32.0624C52.4531 31.3865 52.1402 30.7286 51.7863 30.0926C53.0637 30.4523 54.2837 30.4853 55.4319 30.1936C57.2162 32.6571 57.8635 35.4177 57.3655 38.427C57.3484 38.5278 57.3536 38.6311 57.3806 38.7298C57.4076 38.8284 57.4558 38.9199 57.5218 38.998C57.5878 39.0761 57.67 39.1389 57.7628 39.1819C57.8555 39.225 57.9565 39.2473 58.0588 39.2473H58.0604C58.2261 39.2478 58.3867 39.1896 58.5136 39.0831C58.6406 38.9766 58.7258 38.8286 58.7542 38.6653C59.3038 35.3996 58.6461 32.388 56.7905 29.6801C57.7466 29.1801 58.5799 28.4741 59.2301 27.6129C59.3453 27.4614 59.4092 27.2772 59.4128 27.087C59.4163 26.8967 59.3592 26.7102 59.2498 26.5546C59.1403 26.3989 58.9841 26.2821 58.8039 26.2211C58.6236 26.1601 58.4286 26.158 58.2471 26.2152C57.5478 26.4341 56.2111 26.6534 55.1162 25.66C53.3482 24.0558 51.5443 23.9392 50.3935 24.0975C50.5852 23.0916 50.6881 22.0708 50.701 21.0469C52.048 20.8056 53.271 20.1086 54.165 19.0726C54.2055 19.0253 54.2455 18.977 54.2847 18.9278C56.0201 16.7557 55.5289 13.3119 53.2122 11.4078C53.0651 11.2907 52.9428 11.1455 52.8526 10.9805L52.8362 10.9494C52.7395 10.7595 52.6841 10.5513 52.6736 10.3385C52.663 10.1256 52.6976 9.91295 52.775 9.7144C53.8084 6.96237 53.0722 3.87612 50.9849 2.20937C48.8006 0.465147 45.704 0.426358 43.2793 2.1128C42.9971 2.31231 42.6476 2.39232 42.3067 2.33546C42.129 2.3031 41.9594 2.23617 41.8074 2.13847C39.4076 0.637412 36.3114 1.09784 34.6057 3.20909C34.5662 3.25808 34.5275 3.30753 34.4903 3.3571C33.9402 4.08199 33.5898 4.93844 33.4741 5.84102C33.3584 6.74359 33.4814 7.66073 33.8308 8.50093C34.1791 9.3588 34.7402 10.1138 35.4613 10.6946C35.5667 11.4304 35.7524 13.8448 34.3036 16.9178C34.2191 16.8224 34.1395 16.7373 34.0659 16.6637C35.0503 13.7836 34.3014 10.7823 31.8814 7.95284C30.8663 6.76101 29.4442 5.98934 27.8917 5.78791C26.3392 5.58647 24.7672 5.96968 23.4815 6.863C20.4484 8.95901 18.9532 11.6349 19.1287 14.6325C17.6507 15.1885 15.6131 16.5988 15.1333 19.1442C13.4107 17.0373 10.7465 16.0193 7.34718 16.1884C5.78416 16.26 4.30401 16.9119 3.1961 18.0168C2.0882 19.1216 1.43219 20.5999 1.35632 22.1628C1.17163 25.8409 2.38944 28.6562 4.88378 30.3451C4.61917 31.2475 4.28003 33.0666 5.09975 34.8549C5.82186 36.4303 7.25366 37.5941 9.35811 38.3178C9.82246 39.5098 10.433 40.6395 11.1757 41.681C10.5134 42.2127 9.94228 42.8488 9.48468 43.5642L5.42741 41.9365C4.92804 41.7368 4.36992 41.7429 3.87503 41.9535C3.38014 42.164 2.98873 42.5619 2.78635 43.0602C2.6149 43.4853 2.59282 43.956 2.72372 44.3952C2.85463 44.8345 3.13077 45.2163 3.50694 45.4782L2.63108 45.4601H2.61655C2.34649 45.4539 2.07793 45.5018 1.82663 45.6009C1.57534 45.7 1.34638 45.8483 1.15321 46.0371C0.960032 46.2259 0.80654 46.4515 0.701746 46.7004C0.596951 46.9494 0.542969 47.2168 0.542969 47.4869C0.542969 47.7571 0.596951 48.0245 0.701746 48.2734C0.80654 48.5224 0.960032 48.7479 1.15321 48.9367C1.34638 49.1255 1.57534 49.2739 1.82663 49.3729C2.07793 49.472 2.34649 49.5199 2.61655 49.5137V49.5136ZM54.171 26.7004C54.9681 27.4368 56.0202 27.8347 57.1051 27.8103C55.8807 28.8162 53.9229 29.5779 51.0953 28.354C50.9075 28.2722 50.6983 28.2535 50.499 28.3006C50.2997 28.3477 50.1211 28.4581 49.9899 28.6153C49.8586 28.7725 49.7819 28.968 49.7711 29.1725C49.7603 29.377 49.8162 29.5795 49.9302 29.7496C50.5235 30.6397 51.0219 31.5896 51.4173 32.5835C51.6383 33.1367 51.6224 33.5989 51.3673 33.9889C50.7696 33.0961 49.9592 32.3659 49.0092 31.8641C47.4078 31.0225 47.2594 29.6073 47.2458 29.3329C47.2386 29.1833 47.1854 29.0395 47.0936 28.9212C47.0018 28.8028 46.8757 28.7157 46.7326 28.6716C46.5894 28.6275 46.4362 28.6286 46.2937 28.6747C46.1512 28.7208 46.0263 28.8098 45.9362 28.9294C45.7721 29.1466 44.865 30.2185 43.0775 29.9841C42.0111 29.8467 40.9274 29.9762 39.9233 30.3607C39.9421 29.8967 40.1971 29.511 40.6974 29.187C41.5963 28.603 42.5536 28.1144 43.5539 27.7293C43.7453 27.6563 43.9078 27.5232 44.0172 27.35C44.1265 27.1768 44.1767 26.9728 44.1602 26.7686C44.1438 26.5645 44.0616 26.3711 43.9259 26.2177C43.7902 26.0642 43.6085 25.9588 43.4079 25.9175C40.3896 25.2884 39.2334 23.5385 38.8175 22.0121C39.6913 22.6582 40.7817 22.9399 41.8591 22.7979C43.0972 22.6456 44.1824 22.813 45.0845 23.295C45.3865 23.454 45.6649 23.6542 45.9117 23.8899C45.8406 24.5864 45.7522 25.1842 45.6803 25.5774C45.6516 25.7586 45.6949 25.9439 45.801 26.0936C45.9071 26.2434 46.0675 26.3457 46.248 26.3788C46.4285 26.4119 46.6148 26.3731 46.7671 26.2707C46.9194 26.1683 47.0256 26.0104 47.0631 25.8307C47.1041 25.6067 48.0387 20.3985 46.8267 17.7539C47.1911 17.6659 47.5497 17.5553 47.9004 17.4228C48.1765 17.3175 48.4591 17.2299 48.7464 17.1605C49.2336 18.0328 49.9001 22.7072 48.1544 26.6075C48.1154 26.6919 48.0935 26.7833 48.09 26.8763C48.0866 26.9693 48.1016 27.0621 48.1343 27.1492C48.1669 27.2364 48.2166 27.3162 48.2803 27.384C48.344 27.4518 48.4206 27.5063 48.5056 27.5443C48.5905 27.5823 48.6822 27.603 48.7752 27.6054C48.8682 27.6077 48.9608 27.5915 49.0475 27.5578C49.1343 27.524 49.2134 27.4734 49.2805 27.4089C49.3475 27.3443 49.401 27.2671 49.438 27.1817C49.6661 26.6693 49.8612 26.1428 50.0219 25.6055C50.6789 25.4154 52.4328 25.1234 54.171 26.7004ZM42.6794 21.3388C43.6228 20.5641 44.7358 20.0233 45.9279 19.7605C46.0306 20.5745 46.0638 21.3958 46.0271 22.2154C45.2897 21.7621 44.1888 21.332 42.6794 21.3388V21.3388ZM35.1326 7.9689C34.8714 7.35491 34.7783 6.68253 34.8628 6.02069C34.9472 5.35885 35.2061 4.73137 35.613 4.20261C35.6409 4.16558 35.6696 4.12886 35.6989 4.09245C36.9376 2.5594 39.293 2.22483 41.0612 3.33073C41.3688 3.52608 41.7118 3.65899 42.0706 3.7219C42.7746 3.84117 43.4972 3.67786 44.0815 3.26745C45.9916 1.93925 48.4125 1.95577 50.1065 3.30847C51.7237 4.59999 52.2797 7.03116 51.4577 9.22034C51.3105 9.60475 51.2463 10.016 51.2693 10.4269C51.2923 10.8379 51.402 11.2394 51.5912 11.605L51.6076 11.636C51.7847 11.9668 52.0264 12.2586 52.3183 12.4943C54.0245 13.8966 54.4296 16.4929 53.1855 18.05C53.1561 18.0867 53.1269 18.1228 53.0959 18.1584C52.4591 18.8914 51.607 19.4045 50.6612 19.6244C50.5697 18.315 50.3331 17.2478 50.0524 16.6424C49.8334 16.17 49.5609 15.8924 49.2196 15.7939C48.7077 15.6456 48.1161 15.8551 47.431 16.0976C47.2153 16.1739 46.9952 16.2517 46.7917 16.3116C46.2675 15.6618 46.4076 15.0214 46.5104 14.8895C46.6147 14.7652 46.6836 14.6152 46.7099 14.4551C46.7362 14.295 46.719 14.1308 46.66 13.9797C46.601 13.8285 46.5025 13.6961 46.3747 13.5961C46.2469 13.4961 46.0946 13.4324 45.9337 13.4116C43.0869 13.0371 42.1275 11.2466 41.8087 10.2123C41.7601 10.0553 41.6697 9.91454 41.5472 9.80501C41.4247 9.69547 41.2747 9.62133 41.1133 9.59053C40.9518 9.55972 40.7851 9.57342 40.6308 9.63015C40.4766 9.68688 40.3407 9.78451 40.2377 9.91257C39.9647 10.2504 39.4073 10.6183 38.3031 10.4516C37.6037 10.3511 36.9429 10.0689 36.3865 9.63331C35.8302 9.19768 35.3979 8.62379 35.1326 7.9689V7.9689ZM45.1052 16.0483L42.8231 16.2301L44.399 14.5103C44.6163 14.579 44.8451 14.6393 45.0854 14.6914C44.9746 15.1378 44.9814 15.6053 45.1052 16.0483V16.0483ZM41.2162 12.1857L39.5723 14.2364L39.6439 11.8133C40.0368 11.73 40.4095 11.5703 40.7409 11.3434C40.8765 11.6366 41.0355 11.9182 41.2166 12.1857H41.2162ZM36.9348 11.5368C37.3092 11.6799 37.6979 11.7824 38.0942 11.8425C38.1423 11.8497 38.1887 11.855 38.2357 11.8607L38.1448 14.9364C38.1371 15.1793 38.2061 15.4184 38.342 15.6199C38.4779 15.8213 38.6737 15.9749 38.9017 16.0589C39.1297 16.1428 39.3784 16.1529 39.6125 16.0877C39.8466 16.0224 40.0541 15.8851 40.2058 15.6953L42.1572 13.261C42.4316 13.5045 42.7284 13.7214 43.0438 13.9087L41.6482 15.4321C41.4745 15.6217 41.3597 15.8577 41.3178 16.1114C41.2758 16.3651 41.3086 16.6255 41.412 16.8609C41.5154 17.0963 41.685 17.2966 41.9002 17.4373C42.1154 17.578 42.3669 17.6531 42.624 17.6535C42.6595 17.6535 42.6951 17.6521 42.731 17.6492L45.392 17.4371C45.3391 17.7149 45.3797 18.0024 45.5074 18.2547C45.5303 18.3 45.5514 18.3484 45.5726 18.3962C43.6607 18.8226 41.9392 19.8591 40.6679 21.3494C39.8197 21.1477 39.2076 20.5748 38.8101 20.0541C38.6948 19.9029 38.5345 19.7922 38.3522 19.7381C38.1699 19.684 37.9751 19.6892 37.7959 19.753C37.6168 19.8167 37.4625 19.9358 37.3555 20.0929C37.2484 20.2501 37.194 20.4372 37.2002 20.6273C37.2324 21.7212 37.512 22.7937 38.018 23.7641C36.6805 24.3543 35.4362 25.1365 34.3247 26.0861C34.2988 25.9903 34.2736 25.9035 34.2503 25.8283C34.9694 24.7443 35.6519 23.3604 35.8367 21.84C37.8316 19.9036 38.3797 17.2366 38.4023 17.1207L37.023 16.8462C36.773 17.8841 36.3418 18.8697 35.7494 19.7578C35.6374 19.2322 35.4558 18.7238 35.2093 18.2461C36.7244 15.4108 36.969 12.9795 36.9351 11.5368H36.9348ZM20.0537 15.8114C20.2206 15.7693 20.3662 15.6675 20.463 15.5252C20.5598 15.3829 20.601 15.2101 20.5789 15.0394C20.2274 12.3222 21.4726 9.96038 24.2811 8.01987C25.2808 7.32517 26.5031 7.02709 27.7103 7.18357C28.9175 7.34006 30.0234 7.93994 30.8129 8.86655C33.0295 11.4586 33.6274 14.0592 32.5899 16.5962C32.5314 16.7396 32.5217 16.8982 32.5625 17.0476C32.6033 17.1969 32.6922 17.3287 32.8155 17.4223C33.4345 17.9591 33.9074 18.644 34.1899 19.4131C34.8423 21.1841 34.4067 23.171 32.895 25.3193C32.8265 25.4166 32.7838 25.5296 32.7709 25.6479C32.758 25.7662 32.7754 25.8858 32.8213 25.9955C32.8273 26.0098 33.4169 27.4494 33.1719 29.5228C32.8856 31.9446 31.6185 34.1389 29.4014 36.0619C29.4167 33.1775 28.7958 29.8962 26.4937 27.4731C26.0681 27.0247 25.5976 26.6211 25.0896 26.2688C25.325 25.2764 25.5691 24.3 25.8144 23.3547C26.8986 22.9778 29.8974 21.7391 30.8365 19.3055C30.9036 19.1315 30.8988 18.9379 30.8232 18.7673C30.7476 18.5968 30.6074 18.4633 30.4333 18.3961C30.2593 18.329 30.0657 18.3337 29.8952 18.4093C29.7246 18.4849 29.5911 18.6252 29.524 18.7992C28.9762 20.2189 27.3912 21.1547 26.2629 21.663C27.543 16.9403 28.7297 13.3717 28.7455 13.3244C28.7756 13.2366 28.7881 13.1437 28.7821 13.051C28.7762 12.9584 28.7519 12.8678 28.7108 12.7846C28.6697 12.7014 28.6125 12.6271 28.5425 12.5661C28.4725 12.5051 28.3912 12.4586 28.3031 12.4292C28.2151 12.3998 28.1221 12.3881 28.0295 12.3949C27.9369 12.4016 27.8465 12.4266 27.7637 12.4684C27.6808 12.5102 27.607 12.568 27.5466 12.6385C27.4862 12.709 27.4403 12.7908 27.4117 12.8791C27.3955 12.9273 26.1767 16.5923 24.8716 21.4208C24.05 20.4146 22.9775 18.5833 23.5554 16.3301C23.6017 16.1495 23.5744 15.9578 23.4794 15.7973C23.3845 15.6368 23.2296 15.5206 23.049 15.4743C22.8684 15.4279 22.6767 15.4553 22.5162 15.5502C22.3557 15.6452 22.2395 15.8 22.1932 15.9807C21.2876 19.512 23.5498 22.1564 24.4441 23.0353C24.2332 23.8487 24.0232 24.6851 23.8187 25.5348C23.5495 25.4078 23.273 25.2968 22.9906 25.2023C22.3069 23.2228 20.9477 20.8497 18.2812 20.0155C17.6932 19.8329 17.0817 19.7366 16.466 19.7295C16.8076 16.6902 19.9139 15.8476 20.0537 15.8114V15.8114ZM30.7321 42.1819L29.3141 41.9677C29.2002 41.1062 29.1118 39.6321 29.2478 38.4844C29.2689 38.3072 29.2878 38.1257 29.3052 37.9415C29.4669 37.8202 29.6257 37.6987 29.778 37.5766C29.9128 39.0989 30.2248 40.7867 30.7321 42.1819V42.1819ZM10.5714 37.5391C10.5366 37.4322 10.4768 37.3352 10.3968 37.2562C10.3169 37.1772 10.2192 37.1185 10.1119 37.0851C8.22632 36.4976 6.97241 35.554 6.38331 34.2803C5.51237 32.3959 6.36725 30.3448 6.3751 30.3264C6.44367 30.1684 6.45183 29.9907 6.39805 29.827C6.34426 29.6633 6.23226 29.5251 6.08331 29.4386C3.70815 28.0586 2.59042 25.6341 2.76093 22.2321C2.82023 21.0178 3.3303 19.8693 4.19141 19.0111C5.05252 18.1529 6.20276 17.6467 7.41725 17.5915C10.8316 17.4215 13.2649 18.5359 14.6489 20.9042C14.727 21.0363 14.846 21.1394 14.9879 21.1981C15.1297 21.2567 15.2868 21.2677 15.4355 21.2292C15.6184 21.1818 19.9355 20.1381 21.768 25.9837C21.8055 26.1014 21.873 26.2073 21.964 26.2908C22.0551 26.3743 22.1663 26.4326 22.2868 26.4598C22.3039 26.4637 24.0073 26.8639 25.5282 28.4976C27.5519 30.6714 28.3555 34.0675 27.8518 38.3185C27.7179 39.4492 27.7771 40.796 27.8753 41.7498L25.5135 41.393C25.5021 41.2127 25.4213 41.0438 25.2881 40.9217C24.4007 40.1094 23.4874 39.1971 22.5694 38.224C22.845 37.0844 23.4541 33.8367 22.1032 31.6281C22.0054 31.4701 21.849 31.3571 21.6682 31.314C21.4874 31.271 21.2969 31.3012 21.1384 31.3982C20.9798 31.4952 20.8661 31.651 20.8221 31.8315C20.7781 32.0121 20.8074 32.2028 20.9035 32.3618C21.7209 33.6978 21.5967 35.6626 21.39 36.9447C19.4782 34.8253 17.5839 32.5128 15.8939 30.3509C16.2628 29.2434 17.0883 26.1578 15.7298 23.9362C15.6325 23.7771 15.476 23.6632 15.2947 23.6195C15.1134 23.5758 14.9222 23.6059 14.7631 23.7033C14.604 23.8006 14.4901 23.9571 14.4464 24.1384C14.4027 24.3197 14.4329 24.5109 14.5302 24.67C15.3184 25.9591 15.1051 27.7637 14.8232 28.9656C11.8557 25.0888 9.74167 21.9994 9.69936 21.9373C9.64735 21.861 9.58081 21.7957 9.50356 21.7451C9.42631 21.6945 9.33985 21.6597 9.24912 21.6425C9.1584 21.6253 9.06518 21.6262 8.97478 21.6451C8.88439 21.6639 8.7986 21.7004 8.72231 21.7524C8.64602 21.8044 8.58072 21.871 8.53014 21.9482C8.47956 22.0255 8.44469 22.1119 8.42753 22.2027C8.41036 22.2934 8.41123 22.3866 8.43009 22.477C8.44895 22.5674 8.48543 22.6532 8.53745 22.7295C8.58057 22.7928 10.7533 25.9684 13.7992 29.9394C12.4991 29.9783 10.3719 29.7156 8.92417 27.873C8.80895 27.7263 8.64021 27.6315 8.45505 27.6092C8.2699 27.587 8.0835 27.6393 7.93686 27.7545C7.79023 27.8697 7.69536 28.0384 7.67315 28.2236C7.65093 28.4088 7.70317 28.5951 7.81839 28.7418C9.53589 30.9279 11.966 31.3463 13.5751 31.3463C13.9925 31.3467 14.4094 31.3182 14.8229 31.2611C16.5601 33.4814 18.511 35.8591 20.4796 38.0321C19.1177 38.2782 16.7505 38.4098 15.0849 36.8799C15.0172 36.8161 14.9374 36.7664 14.8503 36.7336C14.7632 36.7009 14.6705 36.6858 14.5775 36.6892C14.4845 36.6925 14.3931 36.7143 14.3085 36.7533C14.224 36.7923 14.1481 36.8476 14.0851 36.9162C14.0222 36.9847 13.9735 37.0651 13.9418 37.1526C13.9101 37.2401 13.8962 37.333 13.9007 37.426C13.9052 37.5189 13.9281 37.6101 13.9681 37.6941C14.0081 37.7781 14.0644 37.8534 14.1337 37.9155C15.5706 39.2353 17.349 39.5925 18.854 39.5925C19.7761 39.5881 20.6937 39.4653 21.5845 39.2274C22.1939 39.8728 22.8019 40.4915 23.402 41.0738L16.5026 40.0308C16.4873 40.0286 16.4722 40.0268 16.4569 40.0254C15.0313 39.9102 13.6032 40.2148 12.3487 40.9015C11.6046 39.8677 11.0065 38.7362 10.5714 37.5391V37.5391ZM10.8279 44.0806C12.0574 42.3286 14.1392 41.2496 16.316 41.4257L21.5426 42.2154V45.7373C21.5426 45.9237 21.6166 46.1026 21.7485 46.2344C21.8804 46.3663 22.0592 46.4404 22.2457 46.4404C22.4322 46.4404 22.611 46.3663 22.7429 46.2344C22.8747 46.1026 22.9488 45.9237 22.9488 45.7373V42.4279L37.1996 44.582V46.6066C37.1996 46.793 37.2737 46.9719 37.4056 47.1037C37.5374 47.2356 37.7163 47.3097 37.9028 47.3097C38.0892 47.3097 38.2681 47.2356 38.3999 47.1037C38.5318 46.9719 38.6059 46.793 38.6059 46.6066V44.7939L49.3403 46.4159C49.6266 46.4577 49.8882 46.6015 50.0769 46.8209C50.2656 47.0403 50.3687 47.3204 50.3673 47.6098C50.3661 47.8998 50.261 48.1798 50.0712 48.399C49.8814 48.6183 49.6194 48.7624 49.3325 48.8051L45.0583 49.4219V48.9531C45.0583 48.7666 44.9843 48.5878 44.8524 48.4559C44.7205 48.3241 44.5417 48.25 44.3552 48.25C44.1687 48.25 43.9899 48.3241 43.858 48.4559C43.7262 48.5878 43.6521 48.7666 43.6521 48.9531V49.626L32.593 51.2239V49.0676C32.593 48.8811 32.5189 48.7023 32.3871 48.5704C32.2552 48.4386 32.0763 48.3645 31.8899 48.3645C31.7034 48.3645 31.5245 48.4386 31.3927 48.5704C31.2608 48.7023 31.1867 48.8811 31.1867 49.0676V51.4268L16.3874 53.5648V49.811C16.3874 49.6246 16.3133 49.4457 16.1814 49.3139C16.0496 49.182 15.8707 49.1079 15.6842 49.1079C15.4978 49.1079 15.3189 49.182 15.1871 49.3139C15.0552 49.4457 14.9811 49.6246 14.9811 49.811V53.5276C14.1427 53.3948 13.34 53.0928 12.622 52.6399C11.9039 52.187 11.2855 51.5928 10.8044 50.8934C11.1529 50.3233 11.4144 49.7044 11.5803 49.0572C11.8826 47.8722 11.9795 46.0758 10.8279 44.0806V44.0806ZM4.90405 51.7278C4.75043 51.7895 4.57861 51.7879 4.42615 51.7234C4.27369 51.6588 4.15299 51.5365 4.09042 51.3832C4.05983 51.308 4.04449 51.2275 4.0453 51.1463C4.0461 51.0651 4.06303 50.9849 4.0951 50.9103C4.12724 50.8346 4.17412 50.7661 4.23301 50.7087C4.2919 50.6514 4.36162 50.6063 4.43811 50.5762L7.27405 49.4304L8.57483 49.407C8.64503 49.6606 8.72843 49.9103 8.82467 50.1552L4.90405 51.7278ZM4.09042 43.5859C4.15299 43.4327 4.27368 43.3104 4.42611 43.2459C4.57854 43.1813 4.75032 43.1797 4.90393 43.2414L8.83745 44.8193C8.7374 45.0688 8.65079 45.3235 8.57799 45.5822L7.20585 45.5547L4.43647 44.3928C4.36066 44.3627 4.29154 44.3179 4.23309 44.261C4.17463 44.2041 4.12799 44.1362 4.09584 44.0612C4.06368 43.9863 4.04665 43.9057 4.04572 43.8241C4.04479 43.7426 4.05998 43.6616 4.09042 43.5859V43.5859ZM2.61069 46.8662L10.3529 47.0256C10.3828 47.3394 10.3824 47.6553 10.3516 47.969L2.61151 48.1074C2.45135 48.1009 2.2999 48.0327 2.18884 47.9171C2.07777 47.8015 2.0157 47.6475 2.01559 47.4872C2.01549 47.3269 2.07736 47.1728 2.18827 47.057C2.29918 46.9413 2.45054 46.8729 2.61069 46.8662V46.8662Z" fill="#ADADAD"/>
</svg>
