<svg width="32" height="32" viewBox="0 0 32 32" fill="none" xmlns="http://www.w3.org/2000/svg">
<g clip-path="url(#clip0_1078:3)">
<path d="M25.2902 19.8227C24.6351 19.1406 23.8449 18.7759 23.0075 18.7759C22.1767 18.7759 21.3798 19.1338 20.6976 19.816L18.5634 21.9434C18.3878 21.8489 18.2122 21.7611 18.0434 21.6733C17.8003 21.5517 17.5706 21.4369 17.3748 21.3153C15.3756 20.0456 13.5589 18.3909 11.8164 16.25C10.9722 15.1829 10.4048 14.2846 9.99285 13.3728C10.5467 12.8663 11.06 12.3395 11.5597 11.833C11.7488 11.6439 11.9379 11.448 12.1271 11.2589C13.5454 9.84058 13.5454 8.00354 12.1271 6.58524L10.2833 4.74145C10.0739 4.53208 9.85777 4.31596 9.65516 4.09984C9.24993 3.6811 8.82444 3.24886 8.38544 2.84363C7.73032 2.19526 6.94688 1.85081 6.12291 1.85081C5.29894 1.85081 4.50199 2.19526 3.82661 2.84363C3.81986 2.85038 3.81986 2.85038 3.81311 2.85713L1.51681 5.17369C0.652318 6.03818 0.15929 7.09178 0.0512285 8.31422C-0.110863 10.2863 0.469965 12.1234 0.915717 13.3256C2.00984 16.277 3.64426 19.0123 6.08239 21.9434C9.04056 25.4757 12.5998 28.265 16.6656 30.2304C18.219 30.9665 20.2924 31.8378 22.609 31.9864C22.7508 31.9931 22.8994 31.9999 23.0345 31.9999C24.5946 31.9999 25.9048 31.4393 26.9314 30.3249C26.9382 30.3114 26.9517 30.3047 26.9584 30.2912C27.3096 29.8657 27.7149 29.4807 28.1404 29.0687C28.4308 28.7918 28.7279 28.5014 29.0184 28.1975C29.687 27.5018 30.0382 26.6914 30.0382 25.8606C30.0382 25.0232 29.6802 24.2195 28.9981 23.5441L25.2902 19.8227ZM27.7081 26.9345C27.7014 26.9345 27.7014 26.9413 27.7081 26.9345C27.4447 27.2182 27.1746 27.4748 26.8841 27.7585C26.4451 28.1772 25.9994 28.6162 25.5807 29.1092C24.8985 29.8386 24.0948 30.1831 23.0412 30.1831C22.9399 30.1831 22.8319 30.1831 22.7305 30.1763C20.7247 30.048 18.8606 29.2646 17.4626 28.5959C13.6399 26.7454 10.2833 24.1182 7.49394 20.7885C5.19088 18.0127 3.65101 15.4463 2.63119 12.6907C2.00308 11.009 1.77345 9.69875 1.87476 8.4628C1.9423 7.67261 2.24622 7.01749 2.80679 6.45692L5.10984 4.15387C5.44078 3.84319 5.79197 3.67435 6.13642 3.67435C6.56191 3.67435 6.90635 3.93099 7.12248 4.14711C7.12923 4.15387 7.13598 4.16062 7.14274 4.16738C7.55472 4.55234 7.94644 4.95082 8.35842 5.37631C8.56779 5.59243 8.78391 5.80855 9.00004 6.03143L10.8438 7.87522C11.5597 8.59113 11.5597 9.253 10.8438 9.96891C10.648 10.1648 10.4589 10.3606 10.263 10.5497C9.69568 11.1306 9.15538 11.6709 8.56779 12.1977C8.55429 12.2112 8.54078 12.2179 8.53402 12.2314C7.9532 12.8123 8.06126 13.3796 8.18283 13.7646C8.18958 13.7848 8.19633 13.8051 8.20309 13.8253C8.68261 14.987 9.35799 16.0811 10.3846 17.3846L10.3913 17.3914C12.2554 19.6877 14.2207 21.4774 16.3887 22.8484C16.6656 23.024 16.9493 23.1659 17.2194 23.3009C17.4626 23.4225 17.6922 23.5373 17.8881 23.6589C17.9151 23.6724 17.9421 23.6927 17.9691 23.7062C18.1987 23.821 18.4149 23.875 18.6377 23.875C19.1983 23.875 19.5495 23.5238 19.6643 23.409L21.9741 21.0992C22.2038 20.8696 22.5685 20.5927 22.9939 20.5927C23.4127 20.5927 23.7571 20.8561 23.9665 21.0857C23.9733 21.0924 23.9733 21.0924 23.98 21.0992L27.7014 24.8206C28.397 25.5094 28.397 26.2186 27.7081 26.9345Z" fill="#00152B"/>
<path d="M17.294 7.61219C19.0635 7.90936 20.6709 8.74683 21.9541 10.0301C23.2373 11.3133 24.068 12.9207 24.372 14.6902C24.4462 15.1359 24.8312 15.4466 25.2702 15.4466C25.3242 15.4466 25.3715 15.4399 25.4256 15.4331C25.9253 15.3521 26.2563 14.8793 26.1752 14.3795C25.8105 12.2386 24.7974 10.2867 23.2508 8.74008C21.7042 7.19345 19.7523 6.18038 17.6114 5.81567C17.1116 5.73463 16.6456 6.06556 16.5578 6.55859C16.47 7.05162 16.7942 7.53114 17.294 7.61219Z" fill="#00152B"/>
<path d="M31.9633 14.1158C31.3622 10.5903 29.7007 7.38227 27.1478 4.82933C24.5948 2.27638 21.3868 0.614944 17.8613 0.0138546C17.3683 -0.0739451 16.9022 0.263746 16.8144 0.756775C16.7334 1.25656 17.0643 1.72257 17.5641 1.81037C20.7114 2.34392 23.5818 3.83652 25.8646 6.11255C28.1474 8.39534 29.6332 11.2657 30.1667 14.413C30.241 14.8587 30.626 15.1694 31.065 15.1694C31.119 15.1694 31.1663 15.1627 31.2203 15.1559C31.7134 15.0816 32.0511 14.6089 31.9633 14.1158Z" fill="#00152B"/>
</g>
<defs>
<clipPath id="clip0_1078:3">
<rect width="32" height="32" fill="white"/>
</clipPath>
</defs>
</svg>
